<svg height="512pt" viewBox="0 -94 512.00025 512" width="512pt" xmlns="http://www.w3.org/2000/svg"><path d="m486.398438 17.066406h-282.453126c-10.496093-10.832031-24.910156-16.9843748-39.992187-17.066406h-20.679687c-30.835938.855469-55.917969 25.109375-57.8125 55.902344-1.074219.316406-2.226563.769531-3.515626 1.289062-15.410156 6.671875-20.855468 27.304688-12.390624 47.035156l.394531.914063c4.316406 10.085937 8.4375 19.710937 17.6875 23.199219 2.773437 11.300781 7.792969 21.921875 14.761719 31.234375v15.101562c.007812 16.816407-12.726563 30.898438-29.457032 32.582031l-28.320312 3.515626c-25.382813 2.511718-44.699219 23.902343-44.621094 49.40625v40.109374c.0195312 13.234376 10.742188 23.957032 23.980469 23.976563h267.773437c10.546875-.023437 19.832032-6.957031 22.84375-17.066406h171.800782c14.140624 0 25.601562-11.460938 25.601562-25.597657v-34.136718c0-14.136719-11.460938-25.597656-25.601562-25.597656h-188.796876c-7.527343-6.234376-16.734374-10.09375-26.453124-11.09375l-34.175782-3.488282c-3.21875-.402344-6.363281-1.238281-9.355468-2.484375h258.78125c14.140624 0 25.601562-11.460937 25.601562-25.601562v-34.132813c0-14.136718-11.460938-25.601562-25.601562-25.601562h-256.324219c2.832031-4.542969 5.234375-9.339844 7.179687-14.324219l.347656-.804687c.273438-.621094.394532-1.304688.632813-1.9375h248.164063c14.140624 0 25.601562-11.460938 25.601562-25.597657v-34.132812c0-14.140625-11.460938-25.601563-25.601562-25.601563zm-196.265626 68.265625 38.402344-51.199219h29.863282l-38.398438 51.199219zm68.265626-22.773437v22.773437h-17.066407zm-102.398438-28.425782-22.1875 29.570313c-2.46875-2.863281-5.539062-5.140625-8.992188-6.675781-1.019531-.4375-2.058593-.820313-3.117187-1.152344-.480469-7.539062-2.390625-14.917969-5.628906-21.742188zm-160.714844 78.507813c-3.203125-.144531-4.839844-2.988281-9.644531-14.226563l-.402344-.921874c-4.863281-11.324219-2.207031-21.894532 3.363281-24.582032.417969.21875.855469.476563 1.398438.742188 2.644531 1.34375 5.800781 1.214844 8.328125-.335938 2.527344-1.550781 4.070313-4.300781 4.070313-7.269531v-6.3125c-.179688-22.945313 17.945312-41.863281 40.875-42.667969h20.652343c11.535157.085938 22.453125 5.226563 29.867188 14.0625l.066406.101563c7.019531 7.839843 10.914063 17.980469 10.941406 28.503906v6.3125c-.003906 2.96875 1.539063 5.726563 4.066407 7.277344 2.53125 1.554687 5.6875 1.679687 8.332031.335937.503906-.257812.945312-.496094 1.40625-.742187 4.898437 2.3125 7.128906 10.460937 5.179687 19.0625-.429687 1.890625-1.039062 3.738281-1.824218 5.511719l-.402344.914062c-4.804688 11.238281-6.441406 14.082031-9.640625 14.226562-4.078125.1875-7.453125 3.238282-8.046875 7.277344-.3125 2.019532-.769532 4.015625-1.367188 5.972656-2.425781 9.355469-6.824218 18.085938-12.902344 25.601563-8.402343 11.597656-21.6875 18.675781-36 19.183594-14.324218-.507813-27.617187-7.585938-36.027343-19.191407-7.394531-9.15625-12.304688-20.058593-14.261719-31.660156-.636719-3.992187-3.992188-6.988281-8.027344-7.175781zm160.714844 23.894531-38.398438 51.199219h-9.335937c-2.195313-4.007813-3.382813-8.488281-3.464844-13.058594v-15.101562c5.230469-7.007813 9.355469-14.78125 12.226563-23.039063zm51.199219 0-38.398438 51.199219h-29.867187l38.398437-51.199219zm51.199219 0-38.398438 51.199219h-29.867188l38.402344-51.199219zm51.203124 0-38.402343 51.199219h-29.867188l38.402344-51.199219zm25.597657 0v51.199219h-42.664063l38.398438-51.199219zm-315.894531 39.875c20.347656 15.078125 48.152343 15.097656 68.523437.050782.480469 9.328124 3.730469 18.304687 9.335937 25.777343l.085938.113281c6.308594 8.523438 14.945312 15.042969 24.871094 18.773438-20.679688 12.332031-44.449219 18.511719-68.519532 17.808594-23.746093.632812-47.203124-5.351563-67.738281-17.289063 19.464844-6.660156 32.78125-24.671875 33.441407-45.234375zm200.695312 113.722656h-4.265625v-29.953124c-.042969-7.359376-1.730469-14.617188-4.933594-21.246094h47.597657zm46.933594-34.132812v34.132812h-25.601563zm128-8.535156v34.136718c0 4.710938-3.820313 8.53125-8.535156 8.53125h-102.398438v-51.199218h102.398438c4.714843 0 8.535156 3.820312 8.535156 8.53125zm-196.265625 12.714844v40.109374c0 3.816407-3.09375 6.910157-6.914063 6.910157h-267.773437c-1.835938 0-3.59375-.726563-4.890625-2.023438-1.292969-1.296875-2.023438-3.054687-2.023438-4.886719v-40.109374c-.035156-16.808594 12.726563-30.882813 29.457032-32.484376l17.597656-2.167968c17.695312 18.585937 51.933594 30.472656 89.480468 30.472656 37.914063 0 72.292969-12.066406 89.90625-30.933594l25.871094 2.652344c16.667969 1.660156 29.347656 15.710938 29.289063 32.460938zm196.265625-115.113282v34.132813c0 4.714843-3.820313 8.535156-8.535156 8.535156h-34.132813v-51.199219h34.132813c4.714843 0 8.535156 3.820313 8.535156 8.53125zm-253.59375-62.925781 35.992187-48.007813h29.867188l-38.398438 51.199219h-27.230469c-.015624-1.082031-.128906-2.132812-.230468-3.191406zm253.59375-5.339844c0 4.710938-3.820313 8.53125-8.535156 8.53125h-110.929688v-51.199219h110.929688c4.714843 0 8.535156 3.820313 8.535156 8.535157zm0 0"/></svg>