<svg height="485pt" viewBox="0 -2 485.072 485" width="485pt" xmlns="http://www.w3.org/2000/svg"><path d="m432 248.035156c.003906-11.109375-.957031-22.199218-2.863281-33.144531l-15.761719 2.753906c11.734375 67.25-16.476562 135.21875-72.382812 174.390625l-12.886719-21.039062c-4.359375-7.054688-4.738281-15.867188-1.007813-23.273438l3.636719-7.269531c1.347656-2.714844 4.121094-4.429687 7.152344-4.417969h11.28125c9.824219.03125 18.667969-5.953125 22.289062-15.085937l10.824219-27.074219c1.140625-2.832031 1.726562-5.863281 1.71875-8.917969v-17.601562c.011719-4.246094-1.675781-8.324219-4.6875-11.320313l-9.601562-9.597656c-4.867188-4.875-12.308594-6.082031-18.472657-3l-19.6875 9.847656c-2.25 1.125-4.898437 1.125-7.152343 0l-32-16c-2.703126-1.351562-4.40625-4.117187-4.398438-7.136718v-22.113282c0-8.835937-7.164062-16-16-16-4.417969 0-8-3.582031-8-8v-8c0-2.515625 1.1875-4.886718 3.199219-6.398437l25.601562-19.199219-9.601562-12.800781-25.597657 19.199219c-6.027343 4.546874-9.582031 11.652343-9.601562 19.199218v8c0 13.253906 10.746094 24 24 24v22.113282c-.03125 9.097656 5.113281 17.421874 13.265625 21.464843l32 16c6.761719 3.363281 14.707031 3.363281 21.46875 0l19.691406-9.839843 9.597657 9.597656v17.601562c.003906 1.015625-.195313 2.023438-.574219 2.96875l-10.832031 27.078125c-1.203126 3.046875-4.152344 5.042969-7.425782 5.03125h-11.28125c-9.097656-.03125-17.421875 5.113281-21.460937 13.265625l-3.640625 7.273438c-6.21875 12.339844-5.585938 27.027344 1.671875 38.789062l13.039062 21.289063c-49.28125 28.371093-109.261719 31.082031-160.902343 7.28125l9.816406-6.554688c1.304687-.875 2.839844-1.347656 4.414062-1.359375h20.519532c6.371093.019532 12.484374-2.511718 16.976562-7.03125l22.625-22.625c4.515625-4.492187 7.050781-10.605468 7.03125-16.976562v-36.949219c0-4.335937-1.175781-8.589844-3.398438-12.3125l-17.089843-28.578125c-4.371094-7.136719-12.132813-11.5-20.503907-11.527344h-22.449218c-8.035156-.007812-15.542969 4.003906-20 10.6875l-8.839844 13.3125h-19.71875c-8.835938 0-16 7.164063-16 16v15.28125c0 2.714844-1.378906 5.246094-3.664062 6.71875l-24.960938 16.097656c-17.902344-28.117187-27.402344-60.765624-27.375-94.097656 0-2.679687.078125-5.34375.199219-8h13.914062c3.03125-.007812 5.804688 1.707032 7.152344 4.425782l9.367187 18.773437c2.707032 5.417969 8.253907 8.828125 14.3125 8.800781h8.445313c5.027344.007813 9.765625-2.34375 12.792969-6.355468 3.03125-4.011719 4-9.210938 2.617187-14.042969l-10.191406-35.601563h15.789063c5.453124 0 10.738281-1.855468 14.992187-5.261718l26.113281-20.890626c8.410156-6.75 11.296875-18.273437 7.0625-28.191406l-13.695312-32c-1.578125-3.679687-.191406-7.957031 3.242187-10.015625l20.144531-12.085937c7.300782-4.402344 11.734376-12.339844 11.652344-20.867188l-.132812-11.703125c25.800781-4.84375 52.363281-3.84375 77.726562 2.929688l4.097656-15.425781c-79.453124-21.246094-163.613281 10.46875-209.28125 78.867187-45.667968 68.398437-42.703124 158.285156 7.375 223.523437 50.078126 65.242188 136.144532 91.339844 214.023438 64.902344s130.269531-99.539062 130.28125-181.78125zm-240.199219-169.230468.09375 8.144531c.035157 2.84375-1.445312 5.488281-3.886719 6.949219l-20.152343 12.089843c-10.257813 6.207031-14.394531 19.011719-9.703125 30.046875l13.695312 32c1.417969 3.304688.457032 7.152344-2.351562 9.402344l-26.113282 20.886719c-1.417968 1.117187-3.175781 1.71875-4.984374 1.710937h-15.789063c-5.027344-.007812-9.765625 2.347656-12.792969 6.359375-3.03125 4.007813-4 9.210938-2.617187 14.042969l10.191406 35.597656h-8.445313l-9.371093-18.734375c-4.039063-8.152343-12.363281-13.296875-21.460938-13.265625h-12.433593c9.632812-69.085937 59.066406-126.007812 126.121093-145.230468zm-91.242187 276.429687 24.449218-15.757813c6.863282-4.40625 11.003907-12.007812 10.992188-20.160156v-15.28125h19.71875c5.351562 0 10.347656-2.675781 13.3125-7.128906l8.871094-13.308594c1.484375-2.226562 3.984375-3.5625 6.65625-3.5625h22.449218c2.769532.003906 5.34375 1.4375 6.800782 3.792969l17.054687 28.527344c.746094 1.238281 1.136719 2.652343 1.136719 4.097656v36.949219c0 2.125-.839844 4.164062-2.34375 5.664062l-22.625 22.625c-1.5 1.503906-3.539062 2.347656-5.664062 2.34375h-20.519532c-4.742187 0-9.382812 1.40625-13.328125 4.039063l-17.0625 11.394531c-19.277343-11.457031-36.210937-26.46875-49.898437-44.234375zm0 0"/><path d="m16.542969 255.820312-15.957031 1.113282c.375 5.414062.941406 10.894531 1.6875 16.277344l15.855468-2.191407c-.695312-5.023437-1.234375-10.183593-1.585937-15.199219zm0 0"/><path d="m40.800781 137.453125-14.214843-7.34375c-2.496094 4.796875-4.859376 9.816406-7.019532 14.824219l14.691406 6.34375c2.03125-4.671875 4.238282-9.320313 6.542969-13.824219zm0 0"/><path d="m20.734375 286.074219-15.664063 3.289062c1.121094 5.335938 2.402344 10.679688 3.90625 15.90625l15.390626-4.34375c-1.367188-4.890625-2.589844-9.867187-3.632813-14.851562zm0 0"/><path d="m20.535156 194.964844-15.679687-3.199219c-1.078125 5.300781-2 10.742187-2.71875 16.148437l15.855469 2.121094c.671874-5.046875 1.527343-10.121094 2.542968-15.070312zm0 0"/><path d="m56.664062 111.308594-13.089843-9.214844c-3.117188 4.4375-6.132813 9.054688-8.957031 13.71875l13.679687 8.296875c2.640625-4.363281 5.457031-8.664063 8.367187-12.800781zm0 0"/><path d="m28.6875 165.515625-15.085938-5.3125c-1.816406 5.160156-3.464843 10.402344-4.914062 15.632813l15.425781 4.265624c1.335938-4.867187 2.878907-9.769531 4.574219-14.585937zm0 0"/><path d="m16.488281 225.242188-16-1.039063c-.324219 5.222656-.488281 10.5-.488281 15.832031v.511719l16-.511719c0-4.964844.164062-9.894531.488281-14.792968zm0 0"/><path d="m29.015625 315.484375-15.054687 5.390625c1.839843 5.136719 3.863281 10.25 6.03125 15.199219l14.664062-6.398438c-2.023438-4.632812-3.921875-9.398437-5.640625-14.191406zm0 0"/><path d="m75.910156 87.546875-11.71875-10.886719c-3.703125 4-7.320312 8.152344-10.734375 12.359375l12.429688 10.082031c3.183593-3.9375 6.5625-7.824218 10.023437-11.554687zm0 0"/><path d="m208.800781 18.203125-2.242187-15.855469c-5.359375.746094-10.789063 1.695313-16.132813 2.816406l3.285157 15.671876c4.984374-1.0625 10.058593-1.945313 15.089843-2.632813zm0 0"/><path d="m239.265625 16.035156-.066406-15.9999998c-5.472657 0-10.976563.2187498-16.359375.6015628l1.136718 16c5.050782-.402344 10.144532-.601563 15.289063-.601563zm0 0"/><path d="m178.863281 24.484375-4.34375-15.398437c-5.207031 1.46875-10.464843 3.148437-15.597656 5l5.40625 15.054687c4.792969-1.71875 9.679687-3.28125 14.535156-4.65625zm0 0"/><path d="m98.191406 66.636719-10.128906-12.382813c-4.207031 3.4375-8.351562 7.070313-12.308594 10.789063l10.949219 11.664062c3.695313-3.472656 7.570313-6.863281 11.488281-10.070312zm0 0"/><path d="m150.144531 34.789062-6.402343-14.65625c-4.949219 2.167969-9.910157 4.550782-14.75 7.078126l7.40625 14.175781c4.496093-2.359375 9.121093-4.550781 13.746093-6.597657zm0 0"/><path d="m123.089844 48.925781-8.371094-13.640625c-4.640625 2.847656-9.230469 5.886719-13.648438 9.03125l9.273438 13.039063c4.128906-2.917969 8.410156-5.777344 12.746094-8.429688zm0 0"/><path d="m329.398438 445.484375 6.402343 14.664063c4.984375-2.167969 9.941407-4.542969 14.757813-7.046876l-7.359375-14.195312c-4.511719 2.335938-9.152344 4.554688-13.800781 6.578125zm0 0"/><path d="m403.742188 392.882812 11.699218 10.929688c3.710938-4 7.335938-8.128906 10.765625-12.34375l-12.40625-10.105469c-3.207031 3.9375-6.601562 7.816407-10.058593 11.519531zm0 0"/><path d="m381.425781 413.757812 10.109375 12.398438c4.207032-3.433594 8.351563-7.054688 12.328125-10.761719l-10.917969-11.695312c-3.730468 3.484375-7.570312 6.835937-11.519531 10.058593zm0 0"/><path d="m423.054688 369.171875 13.066406 9.265625c3.136718-4.441406 6.167968-9.042969 8.992187-13.699219l-13.664062-8.316406c-2.648438 4.300781-5.464844 8.605469-8.394531 12.75zm0 0"/><path d="m356.488281 431.402344 8.3125 13.65625c4.625-2.824219 9.222657-5.847656 13.671875-8.992188l-9.25-13.054687c-4.117187 2.9375-8.421875 5.761719-12.734375 8.390625zm0 0"/><path d="m300.65625 455.722656 4.320312 15.410156c5.222657-1.464843 10.480469-3.136718 15.609376-4.960937l-5.386719-15.070313c-4.800781 1.734376-9.671875 3.261719-14.542969 4.621094zm0 0"/><path d="m463.488281 255.324219 15.960938 1.070312c.367187-5.421875.550781-10.925781.550781-16.359375h-16c0 5.136719-.171875 10.234375-.511719 15.289063zm0 0"/><path d="m459.367188 285.589844 15.671874 3.199218c1.097657-5.304687 2.023438-10.746093 2.761719-16.144531l-15.855469-2.152343c-.6875 5.078124-1.554687 10.144531-2.578124 15.097656zm0 0"/><path d="m451.152344 315.011719 15.070312 5.351562c1.832032-5.152343 3.496094-10.398437 4.953125-15.617187l-15.414062-4.300782c-1.363281 4.855469-2.914063 9.757813-4.609375 14.566407zm0 0"/><path d="m438.953125 343.058594 14.207031 7.371094c2.503906-4.800782 4.871094-9.800782 7.039063-14.800782l-14.671875-6.402344c-2.023438 4.679688-4.238282 9.328126-6.574219 13.832032zm0 0"/><path d="m41.238281 343.4375-14.183593 7.40625c2.519531 4.800781 5.234374 9.601562 8.058593 14.230469l13.6875-8.34375c-2.671875-4.308594-5.199219-8.78125-7.5625-13.292969zm0 0"/><path d="m88.800781 426.4375c4.238281 3.445312 8.632813 6.773438 13.054688 9.894531l9.199219-13.097656c-4.164063-2.941406-8.230469-6.019531-12.199219-9.230469zm0 0"/><path d="m144.648438 460.347656c4.96875 2.152344 10.105468 4.175782 15.273437 6.007813l5.335937-15.085938c-4.800781-1.714843-9.601562-3.59375-14.234374-5.601562zm0 0"/><path d="m115.542969 445.285156c4.671875 2.839844 9.480469 5.535156 14.296875 8l7.351562-14.21875c-4.496094-2.320312-8.976562-4.839844-13.34375-7.488281zm0 0"/><path d="m64.800781 404.09375c3.734375 4 7.640625 7.878906 11.589844 11.566406l10.914063-11.710937c-3.695313-3.441407-7.34375-7.074219-10.832032-10.792969zm0 0"/><path d="m57.175781 369.5-13.054687 9.246094c3.144531 4.433594 6.480468 8.800781 9.917968 13.027344l12.359376-10.136719c-3.199219-3.921875-6.292969-8-9.222657-12.136719zm0 0"/><path d="m270.742188 461.941406 2.167968 15.847656c5.371094-.738281 10.800782-1.664062 16.144532-2.777343l-3.246094-15.664063c-5.007813 1.03125-10.054688 1.90625-15.066406 2.59375zm0 0"/><path d="m207.609375 477.867188c5.351563.722656 10.832031 1.273437 16.292969 1.601562l1.066406-16c-5.113281-.335938-10.226562-.855469-15.199219-1.527344zm0 0"/><path d="m240.238281 464.035156v16c5.480469 0 10.984375-.191406 16.371094-.566406l-1.097656-16c-5.039063.378906-10.128907.566406-15.273438.566406zm0 0"/><path d="m175.542969 471.277344c5.257812 1.460937 10.617187 2.757812 15.921875 3.847656l3.199218-15.671875c-4.953124-1.015625-9.953124-2.226563-14.847656-3.585937zm0 0"/><path d="m305.601562 67.546875-4.601562 78.242187c-.667969 11.40625 3.570312 22.554688 11.648438 30.640626l15.519531 15.503906 28.246093-73.496094 28.554688 28.550781v35.3125c-.011719 6.355469 2.519531 12.457031 7.03125 16.933594l13.871094 13.882813 16.96875-28.28125 4.070312 4.0625c6.027344 6.242187 14.949219 8.742187 23.34375 6.546874 8.390625-2.195312 14.941406-8.75 17.140625-17.140624 2.195313-8.390626-.308593-17.316407-6.546875-23.339844l-4.0625-4.066406 28.285156-16.972657-13.871093-13.890625c-4.488281-4.519531-10.597657-7.050781-16.96875-7.03125h-35.328125l-28.503906-28.542968 73.539062-28.28125-15.554688-15.527344c-8.074218-8.085938-19.226562-12.320313-30.628906-11.640625l-78.242187 4.601562-25.734375-25.746093c-9.5-9.0625-24.445313-9.0625-33.945313 0-9.375 9.375-9.375 24.570312 0 33.945312zm16.527344 95.503906c-3.664062-4.625-5.5-10.4375-5.160156-16.328125l3.765625-64 23.328125 23.328125zm80.589844 24.183594c-1.128906-1.421875-1.746094-3.183594-1.75-5v-19.285156l10.230469 10.214843zm51.503906-58.253906c1.816406.003906 3.578125.621093 5 1.75l-14.09375 8.503906-10.21875-10.207031zm-35.535156-84c5.890625-.347657 11.707031 1.492187 16.328125 5.160156l-57.03125 21.933594-23.328125-23.328125zm-127.535156-25.792969c3.121094-3.117188 8.179687-3.117188 11.304687 0l147.078125 147.082031c3.117188 3.121094 3.117188 8.179688 0 11.300781-3.164062 3.027344-8.148437 3.027344-11.3125 0l-147.070312-147.078124c-3.117188-3.125-3.117188-8.179688 0-11.304688zm0 0"/></svg>