<svg id="Glyph" height="512" viewBox="0 0 128 128" width="512" xmlns="http://www.w3.org/2000/svg"><path d="m72.17 83.23a1 1 0 0 1 -1 .59 1 1 0 0 1 -.9-.67 29 29 0 0 0 -5.5-9l-13.05 24.64c1.18.7 2.65 1.52 4.29 2.35l.11.06c7.49 3.8 18.59 8 22.8 3.81 7.3-7.3 12.66-25.33 14.52-32.31a17.66 17.66 0 0 1 -9.39-4 45.48 45.48 0 0 0 -11.88 14.53z"/><path d="m49.83 100-14.72-11.69a1 1 0 0 1 1.25-1.57l13.72 10.89 13.31-25.07a84 84 0 0 0 -13.39-11.56 1 1 0 0 1 -.44-.83v-5.37l-20.09-10.89a.14.14 0 0 0 0 .06c-14.17 10.03-12.71 22.74-12.7 22.87 0 .31 1.44 24.52 0 61.16h37.9v-25.31c-2.69-1.4-4.53-2.52-4.79-2.68-.03-.01-.03-.01-.05-.01z"/><path d="m95.47 49.48a5.55 5.55 0 1 0 5.53 5.52 5.55 5.55 0 0 0 -5.53-5.52z"/><path d="m53 42.53a1 1 0 0 1 .62-.65 1 1 0 0 1 .9.11c1.26.85 4.91 2.69 6.68 1.14a2.17 2.17 0 0 0 .9-1.56 2.5 2.5 0 0 0 -.82-1.57 1 1 0 0 1 -.35-.72 1 1 0 0 1 .28-.74 1.79 1.79 0 0 0 .32-2.16 1 1 0 0 1 .5-1.52c.53-.18 1.53-.74 1.57-1.27a3.35 3.35 0 0 0 0-.54 1.85 1.85 0 0 1 .4-1.45c.52-.52 1.24-.57 2.91-.56.4 0 .53-.08.55-.1.87-1-.68-3.07-1.24-4.42l-.2-.49a7.08 7.08 0 0 1 0-5 6.53 6.53 0 0 0 .28-3.63 47.31 47.31 0 0 0 -1.3-4.53c-1.93-1-4.3-1.64-4.86-1-.33.37-.28.63.07 1.55a4.09 4.09 0 0 1 0 3.74 6.11 6.11 0 0 1 -3.55 2.53c-.86.33-1.6.61-1.86 1.08a6.4 6.4 0 0 0 -.8 2.5 1 1 0 0 1 -1 1h-3.05a1 1 0 0 1 -1-.85c-.2-1.24-1.13-4.66-3.07-5.63a1.63 1.63 0 0 0 -1.65.06 5.49 5.49 0 0 0 -2.21 4c0 .5-.66 11.92-7.37 12.86 0 .46-.08.89-.14 1.27a13.9 13.9 0 0 1 -3.44 6.55l18.93 10.21z"/><path d="m34.73 32.65c4.77-1.17 5.27-10.81 5.27-10.92a7.56 7.56 0 0 1 3.2-5.63 3.64 3.64 0 0 1 3.59-.1c2.51 1.26 3.59 4.67 4 6.27h1.36a9.74 9.74 0 0 1 .85-2.45 5 5 0 0 1 2.92-2 4.32 4.32 0 0 0 2.5-1.63c.36-.66.19-1.18-.15-2a3.15 3.15 0 0 1 .31-3.61c1.56-1.75 4.89-.56 6.64.26.5-1.39 1.06-4.1-1.28-5.86-2.49-1.98-10.31-4.98-16.73-4.98a11.1 11.1 0 0 0 -6.75 1.81c-5.76 4.4-6.59 10.4-6.62 16.19 0 2.23.22 4.93.45 7.55.21 2.45.43 4.97.44 7.1z"/><path d="m95.47 39.23a15.8 15.8 0 1 0 15.81 15.77 15.81 15.81 0 0 0 -15.81-15.77zm0 23.34a7.55 7.55 0 1 1 7.53-7.57 7.55 7.55 0 0 1 -7.53 7.57z"/></svg>